<?xml version="1.0" standalone="no"?>
<!DOCTYPE svg PUBLIC "-//W3C//DTD SVG 20010904//EN"
 "http://www.w3.org/TR/2001/REC-SVG-20010904/DTD/svg10.dtd">
<svg version="1.0" xmlns="http://www.w3.org/2000/svg"
 width="512.000000pt" height="512.000000pt" viewBox="0 0 512.000000 512.000000"
 preserveAspectRatio="xMidYMid meet">
<metadata>
Created by potrace 1.11, written by Peter Selinger 2001-2013
</metadata>
<g transform="translate(0.000000,512.000000) scale(0.100000,-0.100000)"
fill="#000000" stroke="none">
<path d="M2390 5114 c-273 -21 -586 -95 -830 -199 -300 -126 -601 -334 -836
-576 -394 -407 -626 -893 -705 -1479 -17 -122 -17 -478 0 -600 79 -583 310
-1068 701 -1474 405 -420 914 -677 1505 -762 148 -21 496 -24 635 -5 417 57
767 184 1095 398 594 389 1008 1016 1125 1705 137 810 -110 1619 -673 2204
-410 427 -917 685 -1507 769 -107 15 -410 26 -510 19z m-466 -226 c17 -16 35
-57 59 -138 19 -63 60 -198 91 -299 31 -101 56 -195 56 -209 0 -21 3 -23 28
-17 15 4 70 15 122 24 l95 17 62 89 c80 113 101 135 130 135 30 0 46 -17 126
-132 l66 -94 103 -18 c194 -34 446 -130 604 -231 31 -20 66 -40 78 -45 25 -9
128 -101 242 -217 89 -90 174 -198 236 -301 22 -37 42 -68 43 -70 1 -1 78 -9
171 -16 154 -13 170 -16 187 -37 12 -14 16 -31 12 -46 -3 -13 -51 -92 -106
-177 l-100 -154 18 -89 c14 -70 18 -136 18 -318 l0 -230 153 -140 c187 -172
272 -258 272 -279 0 -8 -10 -26 -22 -40 -22 -24 -32 -26 -302 -51 -154 -14
-280 -27 -281 -28 -19 -35 -94 -160 -110 -182 l-22 -30 27 -1 c19 -1 76 -37
177 -115 399 -304 376 -284 376 -329 0 -42 -29 -70 -72 -70 -29 0 -55 15 -138
78 -56 42 -159 120 -229 172 -166 123 -194 148 -194 171 0 14 -20 -3 -64 -54
-36 -41 -91 -97 -124 -125 -55 -48 -60 -56 -66 -104 -13 -95 -36 -111 -130
-87 -39 10 -47 8 -83 -14 -138 -87 -359 -171 -554 -210 l-113 -23 -76 -119
c-77 -122 -106 -149 -144 -136 -12 5 -55 62 -101 134 -55 87 -86 127 -98 127
-45 0 -232 44 -340 80 -246 82 -522 257 -685 434 -39 42 -41 43 -46 20 -6 -24
-318 -292 -357 -306 -78 -29 -131 69 -71 131 55 58 308 264 334 273 l27 10
-64 94 c-35 52 -82 131 -106 177 l-42 83 -131 33 c-72 18 -139 40 -148 49 -35
30 -22 65 63 174 45 57 85 108 89 113 4 6 1 48 -6 95 -7 47 -13 88 -13 92 -1
4 -16 1 -33 -6 -22 -9 -105 -16 -245 -21 l-211 -7 -26 25 c-32 32 -33 68 -3
102 22 27 23 27 240 38 154 8 226 8 246 0 l28 -10 5 121 c3 66 13 164 23 217
l18 96 -77 112 c-117 172 -112 183 120 227 l91 17 29 56 c16 31 47 83 69 116
l40 60 -26 1 c-18 1 -78 40 -176 115 -399 304 -376 284 -376 329 0 42 29 70
71 70 28 0 55 -15 136 -76 56 -41 164 -123 241 -181 168 -126 185 -141 185
-165 0 -13 19 3 60 50 33 39 60 76 60 83 0 7 -23 118 -51 246 -27 128 -49 248
-47 265 2 23 11 37 30 48 27 14 32 13 150 -47 68 -34 180 -92 249 -129 l126
-67 84 35 c46 20 92 38 102 42 16 5 16 8 4 33 -8 16 -37 107 -66 203 -28 96
-68 230 -88 298 -40 135 -39 166 7 189 36 18 56 16 84 -9z m1440 -59 c40 -19
52 -62 33 -117 -10 -26 -34 -95 -55 -154 -20 -59 -45 -117 -55 -128 -23 -28
-87 -27 -112 0 -27 30 -23 73 19 180 71 183 81 205 106 217 31 16 33 16 64 2z
m1040 -680 c29 -23 36 -73 14 -101 -12 -15 -145 -130 -305 -265 -41 -34 -83
-65 -94 -68 -51 -16 -109 44 -95 98 3 13 48 58 103 105 54 44 145 119 201 166
111 92 132 100 176 65z m381 -1434 c30 -29 32 -64 5 -97 -21 -27 -24 -28 -238
-48 -108 -10 -133 -6 -159 29 -20 26 -15 70 11 95 19 20 38 25 102 31 43 3 88
7 99 9 11 2 51 4 88 5 60 1 71 -2 92 -24z m-2811 -1786 c19 -15 26 -30 26 -55
0 -31 -112 -350 -146 -415 -24 -48 -90 -55 -123 -13 -32 40 -38 13 89 369 46
128 92 163 154 114z m1191 -109 c20 -22 82 -237 92 -318 5 -46 3 -56 -17 -77
-46 -49 -109 -25 -134 53 -41 127 -76 291 -67 316 19 47 92 63 126 26z"/>
</g>
</svg>
