<?xml version="1.0" standalone="no"?>
<!DOCTYPE svg PUBLIC "-//W3C//DTD SVG 20010904//EN"
 "http://www.w3.org/TR/2001/REC-SVG-20010904/DTD/svg10.dtd">
<svg version="1.0" xmlns="http://www.w3.org/2000/svg"
 width="700.000000pt" height="700.000000pt" viewBox="0 0 700.000000 700.000000"
 preserveAspectRatio="xMidYMid meet">
<metadata>
Created by potrace 1.11, written by Peter Selinger 2001-2013
</metadata>
<g transform="translate(0.000000,700.000000) scale(0.100000,-0.100000)"
fill="#000000" stroke="none">
<path d="M3450 6988 c-13 -7 -34 -27 -45 -45 -21 -30 -21 -38 -21 -530 1 -459
2 -501 19 -526 49 -76 168 -66 201 16 10 25 13 147 12 529 l-1 498 -30 29
c-35 36 -97 48 -135 29z"/>
<path d="M1113 6054 c-44 -22 -71 -92 -53 -139 10 -26 95 -119 385 -420 22
-23 96 -101 165 -174 69 -73 137 -139 152 -147 62 -32 136 -2 158 65 18 57 2
93 -83 182 -39 41 -137 144 -217 229 -363 384 -392 411 -435 416 -25 3 -52 -1
-72 -12z"/>
<path d="M5785 6061 c-18 -8 -75 -64 -206 -202 -186 -196 -339 -356 -404 -424
-86 -89 -110 -132 -101 -180 13 -67 93 -111 155 -85 16 6 87 73 158 147 70 75
142 150 158 168 17 17 100 105 185 194 85 90 163 171 172 180 52 51 57 127 9
174 -30 31 -90 44 -126 28z"/>
<path d="M3477 5604 c-1 -1 -38 -5 -82 -8 -100 -7 -151 -14 -240 -33 -38 -8
-81 -17 -95 -19 -14 -3 -34 -8 -45 -11 -11 -4 -24 -8 -30 -9 -38 -8 -207 -74
-290 -112 -475 -221 -853 -623 -1042 -1112 -37 -93 -83 -248 -97 -320 -3 -14
-9 -49 -15 -77 -40 -204 -29 -635 20 -790 5 -17 12 -44 15 -60 12 -72 103
-310 160 -421 105 -205 211 -349 379 -517 66 -66 154 -145 195 -177 295 -223
629 -361 994 -410 94 -13 392 -17 451 -7 22 4 63 10 91 13 58 6 65 7 184 35
368 87 698 272 973 544 45 45 100 105 122 132 22 28 43 52 47 55 25 20 171
258 223 365 167 345 229 668 202 1055 -4 52 -9 104 -11 115 -2 11 -7 42 -10
69 -17 126 -92 364 -160 511 -277 595 -821 1023 -1462 1150 -69 14 -163 28
-208 31 -94 6 -265 12 -269 8z"/>
<path d="M57 3596 c-66 -45 -74 -124 -18 -180 l31 -31 498 -1 c365 -1 505 2
527 11 88 35 90 173 3 209 -23 10 -146 13 -520 13 -482 0 -490 -1 -521 -21z"/>
<path d="M5909 3606 c-93 -30 -99 -172 -8 -210 21 -9 157 -12 529 -11 l500 0
32 33 c28 28 33 39 33 81 0 57 -27 94 -79 110 -45 13 -964 11 -1007 -3z"/>
<path d="M1755 1821 c-16 -10 -82 -74 -147 -142 -64 -68 -140 -149 -169 -179
-28 -30 -117 -124 -198 -209 -80 -85 -152 -160 -158 -167 -35 -35 -37 -101 -5
-143 28 -38 61 -52 107 -47 43 5 50 12 340 317 61 64 171 180 245 258 168 178
183 206 140 276 -33 53 -102 69 -155 36z"/>
<path d="M5129 1823 c-52 -32 -74 -101 -46 -150 7 -11 77 -90 157 -174 80 -84
181 -191 225 -237 279 -296 308 -323 350 -328 120 -14 173 125 82 212 -12 11
-78 81 -147 154 -69 73 -143 152 -165 175 -22 23 -103 108 -180 189 -77 81
-152 154 -167 162 -36 18 -77 17 -109 -3z"/>
<path d="M3453 1155 c-17 -7 -40 -26 -50 -41 -17 -26 -18 -62 -19 -519 0 -269
3 -502 8 -516 17 -48 54 -74 109 -74 42 0 53 5 81 33 l33 32 1 500 c0 374 -3
508 -12 529 -23 55 -92 81 -151 56z"/>
</g>
</svg>
